# xmcd CD database file
#
# Track frame offsets:
#	150
#	11630
#	28989
#	41406
#	55668
#	79345
#	90601
#	103580
#	116886
#	130996
#	141661
#	158742
#	171682
#	184173
#
# Disc length: 2709 seconds
#
# Revision: 0
# Processed by: cddbd v1.5.1PL2 Copyright (c) Steve Scherf et al.
# Submitted via: CDex 1.51
#
DISCID=c90a930e
DTITLE=Sitjazz Band - Sitjazz Band
DYEAR=2005
DGENRE=Jazz
TTITLE0=Clarinet marmalade
TTITLE1=Livery stable blues
TTITLE2=Copenhagen
TTITLE3=Riverboat shuffle
TTITLE4=Basin Street blues
TTITLE5=Milneburg joys
TTITLE6=The chant
TTITLE7=Sidewalk blues
TTITLE8=Black bottom stomp
TTITLE9=Perdido Street blues
TTITLE10=What do you want me to do
TTITLE11=Canal Street blues
TTITLE12=Willy the Weeper
TTITLE13=When the Saints go marching in
EXTD=YEAR: 2005
EXTT0=
EXTT1=
EXTT2=
EXTT3=
EXTT4=
EXTT5=
EXTT6=
EXTT7=
EXTT8=
EXTT9=
EXTT10=
EXTT11=
EXTT12=
EXTT13=
PLAYORDER=
